P3
5 5
255
0 0 0 0 0 0 0 0 0 0 0 0 30 20 30
0 0 0 0 0 0 0 0 0 0 0 0 40 20 20
0 0 0 0 0 0 0 0 0 0 0 0 10 0 20
0 0 0 0 0 0 0 0 0 0 0 0 30 20 80
10 20 30 0 0 0 20 20 20 0 0 0 30 30 50
