P3
5 5
15
 0  0  0  0  0  0    0  0  0   15  0 15 2 9 0
 0  0  0  0 15  7    0  0  0    0  0  0 3 3 3
 0  0  0  0  0  0    0 15  7    0  0  0 5 5 5
15  0 15  0  0  0    0  0  0    0  0  0 8 8 8
0 0 0  2 2 2 7 7 7 5 3 3 15 15 15
