P3
	5 5
	255
	0  10  0   100 100  0       0  20  0    255   20 255    0 0 100
	0  20  0    0 255 175       0  30  0     0    30  0     0 25 90
	0  30  0    0  230  0       0 15 175    0    94  0     90 90 90
	255 20 255  0  150  0       0  90  0    255  255 255   90 120 140
     230 30 20   20 30 20       30 40 150   0   10  20    20  0  0
